<svg width="35" height="32" viewBox="0 0 35 32" fill="none" xmlns="http://www.w3.org/2000/svg">
<path d="M15.2587 26.865C15.2731 27.4021 15.1804 27.9367 14.9859 28.4376C14.7913 28.9384 14.4989 29.3955 14.1257 29.782C13.7528 30.1668 13.3064 30.4728 12.8131 30.682C12.3198 30.8913 11.7895 30.9994 11.2537 31C10.7177 31.0002 10.1872 30.8924 9.69378 30.6832C9.20036 30.4739 8.75412 30.1674 8.38169 29.782C8.00779 29.396 7.71492 28.939 7.52034 28.438C7.32576 27.9371 7.23339 27.4022 7.24869 26.865C7.25769 26.167 7.44869 25.483 7.80569 24.884C8.16169 24.284 8.66869 23.79 9.27569 23.451C9.36569 23.396 9.25169 23.56 9.27569 23.451L11.1357 21.799C12.6101 20.2298 13.4336 18.1592 13.4397 16.006C13.4397 13.08 11.7287 10.105 9.26969 8.549C9.36369 8.604 9.23369 8.455 9.26969 8.549C8.66238 8.20902 8.15563 7.71469 7.80069 7.116C7.44452 6.5163 7.25242 5.83344 7.24369 5.136C7.22905 4.59872 7.32171 4.06391 7.51625 3.56287C7.71079 3.06183 8.00331 2.60462 8.37669 2.218C8.74949 1.83334 9.19566 1.52735 9.6888 1.31815C10.1819 1.10894 10.712 1.00076 11.2477 1C11.7837 0.999714 12.3142 1.10742 12.8077 1.31668C13.3011 1.52595 13.7473 1.83249 14.1197 2.218C14.4937 2.60395 14.7867 3.06089 14.9813 3.56188C15.1759 4.06288 15.2682 4.59777 15.2527 5.135C15.2631 7.30708 16.1026 9.3932 17.5997 10.967L18.4167 11.767C18.7427 12.052 19.0847 12.318 19.4407 12.565C20.0617 12.895 20.5827 13.391 20.9447 13.996C21.2157 14.4489 21.392 14.9521 21.4629 15.4751C21.5338 15.9982 21.4979 16.5301 21.3573 17.0389C21.2167 17.5476 20.9743 18.0225 20.6449 18.4349C20.3155 18.8473 19.9058 19.1885 19.4407 19.438C19.3777 19.474 19.4737 19.371 19.4407 19.438C18.1845 20.2321 17.1454 21.3258 16.4167 22.621C15.6862 23.9184 15.2883 25.3764 15.2587 26.865ZM19.7417 5.123C19.7417 5.919 19.9767 6.698 20.4177 7.36C20.8571 8.02107 21.4829 8.53685 22.2157 8.842C22.9478 9.14685 23.7541 9.22661 24.5318 9.07112C25.3094 8.91563 26.0231 8.53193 26.5817 7.969C27.142 7.40452 27.5233 6.68728 27.6779 5.9071C27.8325 5.12692 27.7534 4.31848 27.4507 3.583C27.148 2.84836 26.6344 2.2199 25.9747 1.777C25.2046 1.26028 24.2786 1.02768 23.3557 1.11909C22.4328 1.2105 21.5705 1.62024 20.9167 2.278C20.1648 3.034 19.7424 4.05673 19.7417 5.123ZM23.7487 22.84C22.9567 22.84 22.1817 23.076 21.5227 23.518C20.8631 23.9609 20.3494 24.5894 20.0467 25.324C19.7437 26.0596 19.6646 26.8683 19.8192 27.6486C19.9738 28.429 20.3552 29.1464 20.9157 29.711C21.4743 30.2739 22.1879 30.6576 22.9656 30.8131C23.7432 30.9686 24.5496 30.8888 25.2817 30.584C26.0151 30.2785 26.6413 29.762 27.0807 29.1C27.5954 28.3249 27.8268 27.3959 27.7357 26.47C27.6446 25.544 27.2366 24.6779 26.5807 24.018C26.2095 23.6446 25.7683 23.3482 25.2823 23.1457C24.7963 22.9432 24.2752 22.8386 23.7487 22.838V22.84ZM34.0007 15.994C34.0007 15.198 33.7657 14.42 33.3257 13.758C32.8864 13.0966 32.2606 12.5804 31.5277 12.275C30.7955 11.9699 29.9889 11.8901 29.2111 12.0456C28.4332 12.2011 27.7194 12.5849 27.1607 13.148C26.6002 13.7126 26.2188 14.43 26.0642 15.2104C25.9096 15.9907 25.9887 16.7994 26.2917 17.535C26.5944 18.2696 27.108 18.8981 27.7677 19.341C28.4259 19.783 29.2008 20.019 29.9937 20.019C30.5201 20.0182 31.0413 19.9136 31.5272 19.7111C32.0132 19.5086 32.4544 19.2123 32.8257 18.839C33.5777 18.0826 34.0001 17.0596 34.0007 15.993V15.994Z" fill="#F5F5F5"/>
<path d="M5.00626 11.9688C4.21326 11.9688 3.43926 12.2048 2.78026 12.6468C2.12048 13.09 1.60685 13.7188 1.30426 14.4538C1.00153 15.1892 0.922498 15.9977 1.07708 16.7779C1.23165 17.558 1.61296 18.2753 2.17326 18.8398C2.73266 19.4014 3.44629 19.7842 4.22361 19.9397C5.00093 20.0951 5.8069 20.0161 6.53926 19.7127C7.27217 19.4073 7.89793 18.8912 8.33726 18.2297C8.85169 17.4549 9.08288 16.5263 8.99178 15.6007C8.90068 14.6752 8.49287 13.8094 7.83726 13.1497C7.46617 12.7765 7.02511 12.48 6.53934 12.2774C6.05357 12.0747 5.53261 11.9699 5.00626 11.9688Z" fill="#F5F5F5"/>
</svg>
