<svg width="538" height="539" viewBox="0 0 538 539" fill="none" xmlns="http://www.w3.org/2000/svg">
<g clip-path="url(#clip0_183_376)">
<mask id="mask0_183_376" style="mask-type:luminance" maskUnits="userSpaceOnUse" x="0" y="0" width="538" height="539">
<path d="M538 0H0V539H538V0Z" fill="white"/>
</mask>
<g mask="url(#mask0_183_376)">
<path d="M268.859 537.718C417.346 537.718 537.718 417.346 537.718 268.859C537.718 120.372 417.346 0 268.859 0C120.372 0 0 120.372 0 268.859C0 417.346 120.372 537.718 268.859 537.718Z" fill="black"/>
<path d="M461.663 82.2398C470.55 91.3665 478.857 101.203 486.583 111.75C511.837 146.776 527.793 185.36 534.453 227.5C540.513 265.8 538.253 307.62 526.693 345.79C509.587 402.23 477.363 448.513 430.023 484.64C424.89 488.56 419.55 492.273 414.003 495.78C363.43 527.733 308.177 541.616 248.243 537.43C241.463 536.956 234.733 536.186 228.053 535.12C170.52 525.906 120.88 500.79 79.1334 459.77L71.8434 452.13C72.5368 451.49 72.7301 450.443 72.4234 448.99C69.9234 437.103 67.2501 424.513 64.4034 411.22C64.3706 411.059 64.382 410.892 64.4365 410.735C64.491 410.579 64.5866 410.439 64.7134 410.33L76.4734 400.47C76.5806 400.38 76.7195 400.337 76.86 400.35C77.0004 400.363 77.131 400.432 77.2234 400.54L88.5534 413.99C88.5903 414.032 88.6348 414.066 88.6845 414.091C88.7343 414.115 88.7881 414.13 88.843 414.134C88.898 414.137 88.9528 414.13 89.0043 414.112C89.0559 414.094 89.1032 414.066 89.1434 414.03L89.4034 413.79C89.5451 413.664 89.6316 413.487 89.6446 413.297C89.6577 413.106 89.5963 412.917 89.4734 412.77L77.5934 398.62C77.5253 398.54 77.4419 398.474 77.3482 398.426C77.2544 398.378 77.1521 398.349 77.0471 398.34C76.9421 398.332 76.8365 398.344 76.7364 398.377C76.6362 398.409 76.5435 398.461 76.4634 398.53L63.1934 409.77C63.051 409.891 62.9434 410.048 62.8819 410.223C62.8203 410.399 62.8071 410.588 62.8434 410.77L70.8234 448.96C70.8968 449.3 70.7701 449.536 70.4434 449.67L69.8334 449.92C56.2934 435.013 44.9568 419.483 35.8234 403.33C5.98343 350.603 -5.06657 293.696 2.67343 232.61C3.50676 226.036 4.67343 219.426 6.17343 212.78C19.8601 152.153 50.4034 102.016 97.8034 62.3698C148.833 19.6898 214.913 -1.99023 282.193 1.13977C350.033 4.28977 414.373 33.5198 461.663 82.2398ZM409.043 170.38L414.173 177.74C431.2 204.2 439.9 233.716 440.273 266.29C440.276 266.421 440.329 266.545 440.42 266.637C440.512 266.728 440.635 266.78 440.763 266.78H531.683C532.03 266.78 532.2 266.606 532.193 266.26C531.763 213.05 515.003 162.15 484.553 118.12L477.643 108.87L476.623 107.42L474.963 105.29L463.153 91.6198L455.623 83.7398C394.003 22.2498 307.143 -5.24023 221.513 10.4498C157.293 22.2098 99.7434 57.4398 60.0434 109.22C29.1301 149.54 11.2968 195.383 6.54343 246.75C5.98343 252.79 5.7101 259.296 5.72343 266.27C5.72343 266.61 5.8901 266.78 6.22343 266.78H97.1734C97.2795 266.78 97.3813 266.738 97.4563 266.663C97.5313 266.588 97.5734 266.486 97.5734 266.38C98.0068 235.166 105.923 206.906 121.323 181.6C136.163 157.21 157.633 136.16 181.363 121.7C216.363 100.37 258.953 93.8098 299.503 100.57C344.203 108.03 382.243 133.72 409.043 170.38ZM144.713 379.94L114.103 367.86C113.55 367.646 113.047 367.73 112.593 368.11L102.013 377.1C101.727 377.346 101.623 377.653 101.703 378.02L106.153 398.65C106.22 398.976 106.4 399.056 106.693 398.89C107 398.71 107.197 398.443 107.283 398.09C107.423 397.496 107.43 396.926 107.303 396.38C105.91 390.426 104.563 384.46 103.263 378.48C103.183 378.12 103.283 377.823 103.563 377.59L113.223 369.55C113.497 369.323 113.797 369.276 114.123 369.41L147.193 382.83C147.933 383.136 148.633 383.683 149.293 384.47L157.883 393.02C189.33 421.373 226.11 435.533 268.223 435.5C275.243 435.493 281.82 435.176 287.953 434.55C334.873 429.74 374.433 405.33 402.913 367.89C425.803 337.78 435.863 302.22 434.863 264.01C434.077 233.85 425.823 206.29 410.103 181.33C401.417 168.043 391.24 156.146 379.573 145.64C353.007 121.48 321.883 107.71 286.203 104.33C250.193 100.91 214.253 107.78 183.713 126.58C165.093 138.04 148.933 152.773 135.233 170.78C106.693 208.29 97.6634 254.9 105.683 301.17C106.823 307.75 108.413 314.236 110.453 320.63C117.36 342.203 128.78 361.973 144.713 379.94ZM116.653 391.8L116.433 391.67C116.213 391.536 116.007 391.556 115.813 391.73L107.483 399.14L89.3134 415.48L82.7934 421.42C82.5268 421.666 82.5134 421.926 82.7534 422.2L97.4334 438.54C97.5042 438.617 97.6026 438.664 97.7073 438.669C97.8121 438.675 97.9148 438.639 97.9934 438.57L99.9334 436.83C100.113 436.663 100.12 436.486 99.9534 436.3L87.4934 422.44C87.2534 422.18 87.2668 421.926 87.5334 421.68L91.4534 418.07C91.5534 417.996 91.6534 417.923 91.7534 417.85L106.513 435.45C106.747 435.723 106.727 435.976 106.453 436.21L98.8334 442.69C98.6609 442.836 98.4372 442.907 98.2108 442.888C97.9844 442.869 97.7734 442.762 97.6234 442.59C90.8301 434.59 84.0934 426.593 77.4134 418.6C77.1201 418.246 76.7601 418.076 76.3334 418.09C75.7668 418.103 75.5434 418.386 75.6634 418.94L83.3934 454.97C83.4668 455.323 83.3701 455.616 83.1034 455.85L80.0834 458.49C80.0179 458.546 79.9771 458.626 79.9696 458.712C79.9621 458.798 79.9886 458.883 80.0434 458.95L80.2234 459.16C80.5168 459.52 80.8468 459.553 81.2134 459.26L84.7634 456.45C85.0434 456.223 85.1468 455.933 85.0734 455.58L77.9334 422.46C77.7334 421.52 77.9401 421.42 78.5534 422.16C84.4001 429.193 90.3934 436.346 96.5334 443.62C96.7334 443.853 96.9101 444.113 97.0634 444.4C97.1767 444.593 97.2434 444.796 97.2634 445.01C97.3234 445.603 97.5801 445.71 98.0334 445.33L108.563 436.46C108.622 436.412 108.67 436.352 108.705 436.285C108.74 436.218 108.762 436.145 108.768 436.069C108.775 435.994 108.766 435.918 108.743 435.846C108.72 435.774 108.683 435.707 108.633 435.65L92.7334 417L100.993 409.57C101.062 409.506 101.154 409.472 101.25 409.476C101.345 409.48 101.436 409.52 101.503 409.59L110.693 419.64L113.493 431.65C113.502 431.693 113.522 431.733 113.55 431.766C113.579 431.799 113.616 431.824 113.658 431.838C113.7 431.852 113.744 431.855 113.787 431.847C113.83 431.838 113.87 431.819 113.903 431.79L125.313 422.33C125.509 422.167 125.654 421.953 125.734 421.711C125.813 421.468 125.823 421.208 125.763 420.96L123.713 412.49C123.62 412.116 123.723 411.81 124.023 411.57L125.783 410.17C126.123 409.903 126.213 409.566 126.053 409.16L125.923 408.82C125.906 408.771 125.877 408.727 125.841 408.69C125.804 408.653 125.76 408.624 125.711 408.605C125.662 408.587 125.609 408.578 125.556 408.581C125.503 408.583 125.451 408.596 125.403 408.62C124.177 409.24 123.17 410.086 122.383 411.16C122.157 411.48 122.087 411.83 122.173 412.21L124.163 420.43C124.303 421.016 124.143 421.5 123.683 421.88L115.113 428.97C114.753 429.263 114.51 429.186 114.383 428.74C113.717 426.446 113.113 423.496 112.573 419.89C112.48 419.296 112.003 419.003 111.143 419.01L112.443 417.59C112.69 417.316 112.69 417.043 112.443 416.77L104.143 407.53C103.93 407.29 103.94 407.056 104.173 406.83L108.263 403.03L115.423 396.49C115.703 396.236 115.97 396.25 116.223 396.53L127.233 408.82C127.26 408.846 127.29 408.853 127.323 408.84C128.23 408.353 129.067 407.61 129.833 406.61C129.88 406.556 129.877 406.503 129.823 406.45L123.463 399.41L134.563 390.3C134.619 390.254 134.662 390.195 134.688 390.128C134.714 390.061 134.723 389.988 134.713 389.917C134.703 389.845 134.674 389.778 134.631 389.721C134.587 389.663 134.53 389.618 134.463 389.59L115.503 381.31C114.95 381.07 114.733 381.246 114.853 381.84C115.413 384.76 116.147 387.813 117.053 391C117.12 391.24 116.987 391.506 116.653 391.8ZM142.333 394.13C138.68 397.35 134.76 400.686 130.573 404.14C130.22 404.433 130.143 404.786 130.343 405.2L130.483 405.48C130.617 405.746 130.797 405.783 131.023 405.59L143.123 395.51C143.39 395.29 143.68 395.25 143.993 395.39L151.973 398.98C152.34 399.14 152.69 399.113 153.023 398.9C154.75 397.78 156.34 396.406 157.793 394.78C158.06 394.486 158.007 394.28 157.633 394.16L157.323 394.06C157.171 394.01 157.008 394.001 156.85 394.033C156.692 394.064 156.546 394.135 156.423 394.24L152.863 397.21C152.597 397.436 152.303 397.48 151.983 397.34L143.113 393.44C143.042 393.409 142.965 393.396 142.889 393.401C142.812 393.406 142.738 393.43 142.673 393.47C142.42 393.616 142.307 393.836 142.333 394.13ZM399.023 416.13L431.243 446.6C431.356 446.707 431.507 446.764 431.663 446.76C431.818 446.757 431.966 446.692 432.073 446.58L439.233 439.01C441.324 436.799 442.969 434.208 444.075 431.385C445.181 428.561 445.725 425.561 445.678 422.555C445.631 419.549 444.992 416.597 443.799 413.866C442.606 411.135 440.881 408.68 438.723 406.64L438.503 406.43C434.147 402.312 428.293 400.136 422.228 400.38C416.164 400.623 410.385 403.267 406.163 407.73L399.003 415.3C398.897 415.413 398.839 415.564 398.843 415.719C398.846 415.874 398.911 416.022 399.023 416.13ZM164.563 436.49C170.937 439.103 175.12 443.866 177.113 450.78C177.134 450.853 177.183 450.914 177.25 450.952C177.318 450.989 177.398 450.999 177.473 450.98L180.173 450.34C180.34 450.3 180.4 450.196 180.353 450.03C176.853 436.27 162.243 428 148.623 433.16C140.053 436.4 133.863 444.49 133.153 453.78C131.943 469.76 146.423 482.07 161.893 479.02C161.949 479.009 162.002 478.987 162.049 478.956C162.096 478.924 162.137 478.883 162.168 478.835C162.198 478.788 162.219 478.734 162.229 478.678C162.238 478.622 162.237 478.565 162.223 478.51L161.623 476.04C161.57 475.82 161.43 475.726 161.203 475.76C142.483 478.81 128.673 458.31 141.063 442.7C146.693 435.63 156.293 433.1 164.563 436.49ZM393.833 461.33C393.833 454.983 391.312 448.896 386.825 444.409C382.337 439.921 376.25 437.4 369.903 437.4C366.761 437.4 363.649 438.019 360.746 439.221C357.842 440.424 355.204 442.187 352.982 444.409C350.76 446.631 348.998 449.269 347.795 452.172C346.592 455.076 345.973 458.187 345.973 461.33C345.973 464.472 346.592 467.584 347.795 470.487C348.998 473.391 350.76 476.029 352.982 478.251C355.204 480.473 357.842 482.236 360.746 483.438C363.649 484.641 366.761 485.26 369.903 485.26C376.25 485.26 382.337 482.739 386.825 478.251C391.312 473.763 393.833 467.676 393.833 461.33ZM245.513 481.04C245.513 474.693 242.992 468.606 238.504 464.119C234.017 459.631 227.93 457.11 221.583 457.11C218.441 457.11 215.329 457.729 212.426 458.931C209.522 460.134 206.884 461.897 204.662 464.119C202.44 466.341 200.678 468.979 199.475 471.882C198.272 474.786 197.653 477.897 197.653 481.04C197.653 484.182 198.272 487.294 199.475 490.197C200.678 493.101 202.44 495.739 204.662 497.961C206.884 500.183 209.522 501.946 212.426 503.148C215.329 504.351 218.441 504.97 221.583 504.97C227.93 504.97 234.017 502.449 238.504 497.961C242.992 493.473 245.513 487.386 245.513 481.04ZM276.923 473.05C276.914 472.986 276.925 472.921 276.954 472.864C276.984 472.806 277.03 472.759 277.087 472.73C277.144 472.7 277.21 472.689 277.273 472.698C277.337 472.707 277.397 472.735 277.443 472.78L298.283 491.86C298.317 491.89 298.356 491.913 298.399 491.927C298.442 491.941 298.488 491.945 298.532 491.939C298.577 491.933 298.62 491.918 298.658 491.894C298.696 491.87 298.729 491.838 298.753 491.8L313.833 467.98C313.868 467.926 313.918 467.883 313.977 467.859C314.036 467.834 314.102 467.829 314.164 467.843C314.227 467.857 314.283 467.891 314.326 467.939C314.369 467.986 314.396 468.046 314.403 468.11L319.193 504.34C319.206 504.419 319.248 504.489 319.311 504.538C319.375 504.586 319.454 504.608 319.533 504.6L322.263 504.27C322.304 504.265 322.344 504.252 322.38 504.232C322.415 504.211 322.447 504.184 322.472 504.151C322.497 504.119 322.515 504.082 322.526 504.042C322.536 504.002 322.539 503.961 322.533 503.92L316.533 458.5C316.526 458.436 316.499 458.376 316.456 458.328C316.413 458.281 316.357 458.247 316.294 458.233C316.232 458.219 316.166 458.224 316.107 458.249C316.048 458.273 315.998 458.316 315.963 458.37L298.063 486.61C298.039 486.648 298.006 486.68 297.968 486.704C297.93 486.728 297.887 486.743 297.842 486.749C297.798 486.755 297.752 486.751 297.709 486.737C297.666 486.723 297.627 486.7 297.593 486.67L272.903 464.07C272.857 464.027 272.799 463.998 272.736 463.989C272.674 463.98 272.61 463.991 272.553 464.019C272.496 464.047 272.45 464.092 272.419 464.148C272.389 464.203 272.377 464.267 272.383 464.33L278.403 509.74C278.408 509.781 278.421 509.82 278.442 509.856C278.462 509.892 278.489 509.923 278.522 509.948C278.554 509.973 278.592 509.992 278.631 510.002C278.671 510.013 278.713 510.015 278.753 510.01L281.483 509.66C281.524 509.655 281.564 509.642 281.6 509.622C281.635 509.601 281.667 509.574 281.692 509.541C281.717 509.509 281.735 509.472 281.746 509.432C281.756 509.392 281.759 509.351 281.753 509.31L276.923 473.05Z" fill="white"/>
<path d="M280.463 39.3398L275.683 75.5998C275.671 75.6785 275.629 75.7495 275.566 75.7979C275.502 75.8463 275.423 75.8685 275.343 75.8598L272.603 75.5498C272.563 75.5449 272.523 75.5319 272.487 75.5115C272.452 75.4912 272.42 75.464 272.395 75.4314C272.37 75.3988 272.352 75.3615 272.341 75.3218C272.33 75.282 272.328 75.2406 272.333 75.1998L278.323 29.7298C278.331 29.6661 278.358 29.6062 278.401 29.5585C278.443 29.5107 278.5 29.4774 278.562 29.4632C278.625 29.4489 278.69 29.4544 278.75 29.4789C278.809 29.5033 278.859 29.5456 278.893 29.5998L296.873 57.8598C296.898 57.8977 296.93 57.9298 296.969 57.9538C297.007 57.9778 297.05 57.9933 297.095 57.999C297.139 58.0047 297.185 58.0006 297.228 57.9869C297.271 57.9732 297.31 57.9503 297.343 57.9198L321.953 35.3498C322 35.3054 322.06 35.2768 322.123 35.2678C322.187 35.2588 322.252 35.2699 322.31 35.2996C322.367 35.3293 322.413 35.3761 322.443 35.4335C322.472 35.4909 322.483 35.556 322.473 35.6198L316.453 81.0098C316.449 81.0506 316.436 81.0901 316.415 81.1259C316.395 81.1616 316.368 81.193 316.335 81.2181C316.302 81.2433 316.265 81.2617 316.225 81.2723C316.186 81.2828 316.144 81.2854 316.103 81.2798L313.373 80.9198C313.333 80.9149 313.293 80.9019 313.257 80.8815C313.222 80.8612 313.19 80.8339 313.165 80.8014C313.14 80.7688 313.122 80.7315 313.111 80.6918C313.1 80.652 313.098 80.6106 313.103 80.5698L317.933 44.3098C317.943 44.246 317.932 44.1809 317.903 44.1235C317.873 44.0661 317.827 44.0193 317.77 43.9896C317.712 43.9599 317.647 43.9488 317.584 43.9578C317.52 43.9668 317.46 43.9954 317.413 44.0398L296.653 63.1398C296.62 63.1703 296.581 63.1932 296.538 63.2069C296.495 63.2206 296.449 63.2247 296.405 63.219C296.36 63.2133 296.317 63.1978 296.279 63.1738C296.24 63.1498 296.208 63.1177 296.183 63.0798L281.033 39.2098C280.999 39.1556 280.949 39.1133 280.89 39.0889C280.83 39.0644 280.765 39.0589 280.702 39.0732C280.64 39.0874 280.583 39.1207 280.541 39.1685C280.498 39.2162 280.471 39.2761 280.463 39.3398Z" fill="white"/>
<path d="M245.813 59.2898C245.813 65.6364 243.292 71.7231 238.804 76.2109C234.317 80.6986 228.23 83.2198 221.883 83.2198C215.537 83.2198 209.45 80.6986 204.962 76.2109C200.475 71.7231 197.953 65.6364 197.953 59.2898C197.953 52.9432 200.475 46.8565 204.962 42.3687C209.45 37.881 215.537 35.3598 221.883 35.3598C228.23 35.3598 234.317 37.881 238.804 42.3687C243.292 46.8565 245.813 52.9432 245.813 59.2898ZM242.453 59.2898C242.453 56.5898 241.922 53.9163 240.888 51.4218C239.855 48.9274 238.341 46.6609 236.431 44.7517C234.522 42.8425 232.256 41.3281 229.761 40.2948C227.267 39.2616 224.593 38.7298 221.893 38.7298C219.193 38.7298 216.52 39.2616 214.025 40.2948C211.531 41.3281 209.264 42.8425 207.355 44.7517C205.446 46.6609 203.932 48.9274 202.898 51.4218C201.865 53.9163 201.333 56.5898 201.333 59.2898C201.333 64.7427 203.5 69.9722 207.355 73.8279C211.211 77.6837 216.441 79.8498 221.893 79.8498C227.346 79.8498 232.576 77.6837 236.431 73.8279C240.287 69.9722 242.453 64.7427 242.453 59.2898Z" fill="white"/>
<path d="M393.193 78.8798C393.193 82.0223 392.574 85.1341 391.372 88.0374C390.169 90.9407 388.406 93.5788 386.184 95.8009C383.962 98.023 381.324 99.7856 378.421 100.988C375.518 102.191 372.406 102.81 369.263 102.81C362.917 102.81 356.83 100.289 352.342 95.8009C347.854 91.3131 345.333 85.2264 345.333 78.8798C345.333 72.5332 347.854 66.4465 352.342 61.9587C356.83 57.471 362.917 54.9498 369.263 54.9498C375.61 54.9498 381.697 57.471 386.184 61.9587C390.672 66.4465 393.193 72.5332 393.193 78.8798ZM389.823 78.8798C389.823 73.4296 387.658 68.2026 383.804 64.3488C379.95 60.4949 374.723 58.3298 369.273 58.3298C363.823 58.3298 358.596 60.4949 354.742 64.3488C350.888 68.2026 348.723 73.4296 348.723 78.8798C348.723 84.33 350.888 89.557 354.742 93.4108C358.596 97.2647 363.823 99.4298 369.273 99.4298C374.723 99.4298 379.95 97.2647 383.804 93.4108C387.658 89.557 389.823 84.33 389.823 78.8798Z" fill="white"/>
<path d="M176.943 92.0398C177.237 91.3265 177.463 90.5898 177.623 89.8298C177.697 89.5031 177.897 89.3765 178.223 89.4498L180.513 89.9998C180.82 90.0731 180.957 90.2698 180.923 90.5898C180.863 91.0565 180.753 91.5098 180.593 91.9498C175.583 105.62 160.803 112.57 147.363 106.15C131.593 98.6198 129.433 77.8498 141.973 66.6798C147.627 61.6465 154.543 59.7865 162.723 61.0998C162.801 61.1116 162.875 61.1392 162.941 61.181C163.008 61.2227 163.065 61.2777 163.109 61.3424C163.153 61.4072 163.183 61.4803 163.198 61.5573C163.212 61.6343 163.211 61.7134 163.193 61.7898L162.653 64.0198C162.573 64.3465 162.367 64.4798 162.033 64.4198C155.507 63.1931 149.64 64.7098 144.433 68.9698C139.053 73.3698 136.133 81.0798 137.483 87.8398C141.593 108.37 168.713 111.68 176.943 92.0398Z" fill="white"/>
<path d="M435.683 98.4398L441.573 105.49C445.1 111.703 445.623 118.323 443.143 125.35C441.63 128.903 439.42 131.96 436.513 134.52C427.793 140.726 419.137 141.386 410.543 136.5C405.583 133.68 401.833 128.6 397.793 124.57C397.758 124.535 397.73 124.494 397.711 124.449C397.692 124.403 397.682 124.354 397.682 124.305C397.682 124.255 397.692 124.206 397.711 124.161C397.73 124.115 397.758 124.074 397.793 124.04L430.153 93.4098C430.453 93.1231 430.747 93.1331 431.033 93.4398L435.683 98.4398ZM433.713 132.32C437.5 129.18 439.853 125.456 440.773 121.15C441.7 116.996 441.31 112.936 439.603 108.97L433.573 100.94L430.753 98.2398C430.493 97.9865 430.23 97.9865 429.963 98.2398L402.853 123.92C402.6 124.153 402.58 124.403 402.793 124.67C406.073 128.756 408.663 131.413 410.563 132.64C418.31 137.613 426.027 137.506 433.713 132.32Z" fill="white"/>
<path d="M88.4833 118.23L100.113 128.67C100.149 128.701 100.19 128.726 100.235 128.741C100.28 128.757 100.327 128.764 100.375 128.761C100.422 128.758 100.468 128.746 100.511 128.725C100.554 128.704 100.592 128.675 100.623 128.64L109.333 118.98C109.365 118.944 109.403 118.915 109.446 118.894C109.488 118.874 109.535 118.861 109.582 118.859C109.629 118.856 109.677 118.862 109.722 118.878C109.767 118.894 109.808 118.918 109.843 118.95L111.843 120.71C111.88 120.741 111.909 120.778 111.931 120.82C111.953 120.863 111.966 120.909 111.97 120.956C111.973 121.004 111.968 121.052 111.953 121.097C111.938 121.142 111.914 121.184 111.883 121.22L103.133 130.91C103.102 130.945 103.077 130.986 103.062 131.031C103.046 131.076 103.039 131.124 103.042 131.171C103.045 131.218 103.057 131.265 103.078 131.308C103.099 131.35 103.128 131.388 103.163 131.42L116.743 143.63C116.779 143.661 116.82 143.686 116.865 143.701C116.91 143.717 116.957 143.724 117.005 143.721C117.052 143.718 117.098 143.706 117.141 143.685C117.184 143.664 117.222 143.635 117.253 143.6L129.883 129.55C129.915 129.514 129.953 129.485 129.996 129.464C130.038 129.444 130.085 129.431 130.132 129.429C130.179 129.426 130.227 129.433 130.272 129.448C130.317 129.464 130.358 129.488 130.393 129.52L132.363 131.32C132.398 131.352 132.426 131.391 132.446 131.434C132.466 131.477 132.477 131.523 132.479 131.571C132.481 131.618 132.474 131.665 132.457 131.71C132.441 131.754 132.416 131.795 132.383 131.83L117.503 148.37C117.472 148.405 117.434 148.434 117.391 148.455C117.348 148.476 117.302 148.488 117.255 148.491C117.207 148.494 117.16 148.487 117.115 148.471C117.07 148.456 117.029 148.431 116.993 148.4L83.7233 118.47C83.6877 118.438 83.6587 118.4 83.6379 118.358C83.6171 118.315 83.605 118.268 83.6022 118.221C83.5994 118.174 83.606 118.126 83.6217 118.081C83.6373 118.036 83.6616 117.995 83.6933 117.96L97.0333 103.16C97.0654 103.125 97.1041 103.097 97.1472 103.077C97.1902 103.057 97.2368 103.046 97.2842 103.044C97.3316 103.042 97.3788 103.049 97.4233 103.066C97.4678 103.082 97.5086 103.108 97.5433 103.14L99.4933 104.96C99.5608 105.024 99.6007 105.112 99.6044 105.206C99.6081 105.299 99.5755 105.39 99.5133 105.46L88.4533 117.72C88.4216 117.755 88.3973 117.796 88.3816 117.841C88.366 117.886 88.3594 117.934 88.3622 117.981C88.365 118.028 88.3771 118.075 88.3979 118.118C88.4187 118.16 88.4477 118.198 88.4833 118.23Z" fill="white"/>
<path d="M426.703 269.5C426.703 311.338 410.083 351.462 380.499 381.046C350.916 410.63 310.791 427.25 268.953 427.25C227.115 427.25 186.991 410.63 157.407 381.046C127.823 351.462 111.203 311.338 111.203 269.5C111.203 227.662 127.823 187.538 157.407 157.954C186.991 128.37 227.115 111.75 268.953 111.75C310.791 111.75 350.916 128.37 380.499 157.954C410.083 187.538 426.703 227.662 426.703 269.5ZM142.543 350.88C145.034 354.742 147.704 358.498 150.533 362.12C154.002 366.561 157.728 370.808 161.683 374.83C163.881 377.074 166.16 379.253 168.503 381.35C187.763 398.656 211.169 410.691 236.453 416.29C263.513 422.28 291.705 420.67 317.913 411.64C342.049 403.33 363.672 389.007 380.743 370.02C396.745 352.23 408.268 330.878 414.353 307.74C420.189 285.535 420.867 262.291 416.333 239.79C410.941 213.072 398.391 188.32 380.023 168.18C361.568 147.945 337.937 133.138 311.683 125.36C289.554 118.801 266.211 117.426 243.463 121.34C222.051 125.023 201.694 133.299 183.793 145.6C164.379 158.946 148.372 176.669 137.063 197.34C123.857 221.476 117.527 248.771 118.763 276.25C119.955 302.789 128.16 328.539 142.543 350.88Z" fill="white"/>
<path d="M361.003 163.84L368.273 170.67L374.613 177.46C379.993 183.64 384.907 190.386 389.353 197.7C408.533 230.64 414.383 269.46 404.173 306.32C383.683 380.26 308.613 424.09 234.193 405.29C213.8 400.136 195.237 390.55 178.503 376.53L171.913 370.58L162.093 360.17C156.927 354.05 152.243 347.466 148.043 340.42C105.933 267.66 135.693 174.8 213.103 141C262.513 119.43 319.823 128.26 361.003 163.84ZM236.443 173.08C236.443 172.998 236.476 172.919 236.534 172.861C236.592 172.802 236.671 172.77 236.753 172.77L322.313 172.78C322.395 172.78 322.474 172.747 322.533 172.689C322.591 172.631 322.623 172.552 322.623 172.47V155.82C322.623 155.738 322.591 155.659 322.533 155.601C322.474 155.542 322.395 155.51 322.313 155.51H217.563C217.481 155.51 217.402 155.542 217.344 155.601C217.286 155.659 217.253 155.738 217.253 155.82V181.91C217.253 181.992 217.286 182.071 217.344 182.129C217.402 182.187 217.481 182.22 217.563 182.22H236.133C236.216 182.22 236.294 182.187 236.352 182.129C236.411 182.071 236.443 181.992 236.443 181.91V173.08ZM334.193 184.73L185.753 184.79C185.413 184.79 185.243 184.96 185.243 185.3L185.183 339.34L185.203 349.97L185.193 352.98C185.193 353.34 185.373 353.523 185.733 353.53L188.983 353.57L201.493 353.58H345.973C346.061 353.58 346.145 353.544 346.207 353.48C346.269 353.416 346.303 353.33 346.303 353.24L346.293 337.34C346.293 336.96 346.107 336.77 345.733 336.77L224.483 336.76L210.483 336.74L204.483 336.7C204.143 336.693 203.943 336.523 203.883 336.19C203.603 334.61 203.68 332.553 204.113 330.02L203.873 309.03L203.803 274.44C203.803 274.386 203.814 274.333 203.834 274.283C203.855 274.233 203.885 274.188 203.923 274.15C203.961 274.112 204.007 274.082 204.056 274.061C204.106 274.04 204.159 274.03 204.213 274.03L214.683 274.04C215.037 274.04 215.213 273.866 215.213 273.52V258.73C215.213 258.343 215.02 258.15 214.633 258.15H204.453C204.013 258.15 203.793 257.933 203.793 257.5V202.04C203.793 201.706 203.96 201.54 204.293 201.54L328.933 201.52L340.853 201.5L347.073 201.46C347.487 201.453 347.693 201.243 347.693 200.83V185.46C347.693 185.113 347.527 184.883 347.193 184.77C346.767 184.623 346.307 184.603 345.813 184.71L334.193 184.73ZM217.283 304.68L217.063 317.71L217.293 324.04L217.313 333.88C217.313 334.233 217.487 334.41 217.833 334.41L223.413 334.43L235.853 334.42C236.193 334.42 236.363 334.25 236.363 333.91L236.433 301.03L236.423 277.27L236.493 274.63C236.5 274.276 236.68 274.1 237.033 274.1L254.333 274.07L269.363 273.98L291.053 274.04L300.143 274.08L312.963 273.99C313.303 273.99 313.473 273.82 313.473 273.48L313.463 258.75C313.463 258.39 313.283 258.21 312.923 258.21L293.343 258.18L275.233 258.13L256.693 258.18L244.713 258.05H236.963C236.617 258.05 236.443 257.876 236.443 257.53V204.43C236.443 204.056 236.257 203.87 235.883 203.87L217.593 203.88C217.506 203.88 217.422 203.916 217.36 203.979C217.298 204.043 217.263 204.13 217.263 204.22L217.283 304.68ZM236.763 366.23C236.678 366.23 236.597 366.196 236.537 366.136C236.477 366.076 236.443 365.995 236.443 365.91V356.29C236.443 356.205 236.41 356.124 236.35 356.064C236.29 356.004 236.208 355.97 236.123 355.97L217.573 355.96C217.488 355.96 217.407 355.994 217.347 356.054C217.287 356.114 217.253 356.195 217.253 356.28V383.19C217.253 383.275 217.287 383.356 217.347 383.416C217.407 383.476 217.488 383.51 217.573 383.51H322.273C322.316 383.51 322.359 383.501 322.398 383.485C322.438 383.468 322.473 383.443 322.503 383.413C322.533 383.382 322.556 383.345 322.572 383.305C322.587 383.265 322.595 383.223 322.593 383.18L321.923 366.54C321.921 366.457 321.886 366.378 321.826 366.32C321.766 366.262 321.686 366.23 321.603 366.23H236.763Z" fill="white"/>
<path d="M403.743 415.93C403.702 415.891 403.668 415.845 403.645 415.793C403.621 415.741 403.608 415.686 403.606 415.629C403.605 415.572 403.614 415.516 403.634 415.463C403.654 415.41 403.685 415.361 403.723 415.32L408.863 409.91C412.425 406.158 417.313 403.958 422.454 403.793C427.594 403.628 432.565 405.511 436.273 409.03L436.393 409.14C440.101 412.66 442.241 417.527 442.344 422.669C442.448 427.811 440.505 432.807 436.943 436.56L431.813 441.97C431.775 442.011 431.728 442.045 431.677 442.068C431.625 442.092 431.569 442.105 431.513 442.107C431.456 442.109 431.399 442.099 431.346 442.079C431.293 442.059 431.245 442.029 431.203 441.99L403.743 415.93Z" fill="white"/>
<path d="M369.913 481.88C381.268 481.88 390.473 472.675 390.473 461.32C390.473 449.965 381.268 440.76 369.913 440.76C358.558 440.76 349.353 449.965 349.353 461.32C349.353 472.675 358.558 481.88 369.913 481.88Z" fill="white"/>
<path d="M221.593 501.6C232.948 501.6 242.153 492.395 242.153 481.04C242.153 469.685 232.948 460.48 221.593 460.48C210.239 460.48 201.033 469.685 201.033 481.04C201.033 492.395 210.239 501.6 221.593 501.6Z" fill="white"/>
<path d="M105.573 400.2L108.433 397.558L114.541 389.564L116.644 391.734L126.952 403.195L130.37 406.881L160.844 397.268L157.586 393.576L149.913 385.36L144.411 379.894L122.513 369.072C120.594 366.634 116.765 361.796 116.794 361.941C116.823 362.086 105.103 368.951 99.239 372.365L101.338 386.192L105.573 400.2Z" fill="white"/>
<path d="M125.059 407.273L127.788 410.771L131.382 423.118L113.027 434.802L110.523 419.656L111.465 418.66L111.72 418.535L113.258 417.959L115.334 424.57L122.829 421.726L118.101 411.539L125.059 407.273Z" fill="white"/>
<path d="M91.6406 417.941L92.75 417.004L96.5317 416.158L115.334 439.672L97.623 464.278L81.6725 460.963C68.7771 450.268 62.4169 441.796 51.1727 426.818L50.991 426.576L74.7038 389.564L92.75 411.539L80.8553 421.726L97.623 440.764L102.683 437.39L91.6406 417.941Z" fill="white"/>
</g>
</g>
<defs>
<clipPath id="clip0_183_376">
<rect width="538" height="539" fill="white"/>
</clipPath>
</defs>
</svg>
