<svg width="1333" height="137" viewBox="0 0 1333 137" fill="none" xmlns="http://www.w3.org/2000/svg">
<path d="M0.3 12.07V1.99999H126.84V12.07H0.3ZM0.3 62.99H126.84V73.25H29.18V124.74H126.84V135H0.3V62.99ZM341.476 124.93V135C340.336 135 261.296 135 260.156 135C216.266 135 197.076 116.57 197.076 71.92C197.076 70.78 197.076 66.79 197.076 65.84C197.076 20.62 216.266 1.99999 260.156 1.99999C261.106 1.99999 340.336 1.99999 341.476 1.99999V12.26C340.336 12.26 261.296 12.26 260.156 12.26C228.426 12.26 225.956 32.97 225.956 65.84C225.956 66.98 225.956 70.97 225.956 71.92C225.956 104.79 228.426 124.93 260.156 124.93H341.476ZM484.738 136.9C427.548 136.9 402.848 118.09 402.848 71.35C402.848 70.21 402.848 66.41 402.848 65.27C402.848 18.72 427.548 0.0999928 484.738 0.0999928C485.878 0.0999928 498.988 0.0999928 500.128 0.0999928C557.318 0.0999928 582.208 18.72 582.208 65.27C582.208 66.41 582.208 70.21 582.208 71.35C582.208 118.09 557.318 136.9 500.128 136.9C498.988 136.9 485.878 136.9 484.738 136.9ZM484.738 126.64C485.878 126.64 498.988 126.64 500.128 126.64C531.858 126.64 553.328 104.03 553.328 71.35C553.328 70.21 553.328 66.41 553.328 65.27C553.328 32.4 531.858 10.17 500.128 10.17C498.988 10.17 485.878 10.17 484.738 10.17C453.198 10.17 431.728 32.4 431.728 65.27C431.728 66.41 431.728 70.21 431.728 71.35C431.728 104.03 453.198 126.64 484.738 126.64ZM650.827 135V1.99999H687.687L754.187 121.32L819.547 1.99999H856.027V135H827.147V8.26999L758.177 135H731.577L660.707 8.83999V135H650.827ZM1008.17 136.9C950.975 136.9 926.275 118.09 926.275 71.35C926.275 70.21 926.275 66.41 926.275 65.27C926.275 18.72 950.975 0.0999928 1008.17 0.0999928C1009.31 0.0999928 1022.42 0.0999928 1023.56 0.0999928C1080.75 0.0999928 1105.64 18.72 1105.64 65.27C1105.64 66.41 1105.64 70.21 1105.64 71.35C1105.64 118.09 1080.75 136.9 1023.56 136.9C1022.42 136.9 1009.31 136.9 1008.17 136.9ZM1008.17 126.64C1009.31 126.64 1022.42 126.64 1023.56 126.64C1055.29 126.64 1076.76 104.03 1076.76 71.35C1076.76 70.21 1076.76 66.41 1076.76 65.27C1076.76 32.4 1055.29 10.17 1023.56 10.17C1022.42 10.17 1009.31 10.17 1008.17 10.17C976.625 10.17 955.155 32.4 955.155 65.27C955.155 66.41 955.155 70.21 955.155 71.35C955.155 104.03 976.625 126.64 1008.17 126.64ZM1174.26 135V1.99999H1269.26C1313.72 1.99999 1332.34 20.24 1332.34 65.84C1332.34 66.79 1332.34 70.78 1332.34 71.92C1332.34 116.76 1313.34 135 1269.26 135H1174.26ZM1203.14 124.93H1269.26C1300.99 124.93 1303.46 104.79 1303.46 71.92C1303.46 70.97 1303.46 66.98 1303.46 65.84C1303.46 32.97 1300.99 12.26 1269.26 12.26H1203.14V124.93Z" fill="white"/>
</svg>
