<svg width="800" height="724" viewBox="0 0 800 724" fill="none" xmlns="http://www.w3.org/2000/svg">
<path d="M396.024 79.2884C375.904 47.1958 340.696 27.6951 302.815 27.6641C264.934 27.6306 229.695 47.0694 209.513 79.1284L164.286 150.986C161.068 156.102 160.015 162.288 161.355 168.18C162.699 174.074 166.328 179.192 171.443 182.408L266.931 242.425C272.052 245.643 278.243 246.694 284.138 245.344C290.032 243.994 295.15 240.355 298.36 235.23L396.024 79.2884Z" fill="#F5F5F5"/>
<path d="M414.053 49.4027L413.996 49.3717L512.92 207.146L501.644 214.323C498.882 216.08 497.342 219.242 497.657 222.501C497.971 225.761 500.09 228.569 503.138 229.764L647.804 286.534C650.393 287.551 653.312 287.267 655.657 285.773C658.001 284.279 659.493 281.755 659.668 278.98L669.46 123.88C669.666 120.61 668.02 117.506 665.201 115.838C662.381 114.174 658.865 114.231 656.104 115.991L646.542 122.079L590.164 32.1731C577.706 12.3007 555.898 0.235352 532.444 0.235352H340.244C370.38 5.51315 397.291 23.1609 414.053 49.4027Z" fill="#F5F5F5"/>
<path d="M689.747 514.368C727.626 514.414 762.869 494.988 783.059 462.934C803.244 430.883 805.543 390.707 789.147 356.56L752.376 280.021C749.759 274.573 745.085 270.389 739.381 268.389C733.678 266.389 727.411 266.737 721.966 269.359L620.335 318.256C614.887 320.878 610.704 325.559 608.706 331.268C606.711 336.977 607.07 343.246 609.7 348.691L689.747 514.368Z" fill="#F5F5F5"/>
<path d="M705.448 545.538L705.505 545.502L519.283 545.283L519.208 531.919C519.19 528.644 517.334 525.658 514.408 524.19C511.481 522.724 507.976 523.023 505.341 524.967L380.29 617.226C378.052 618.878 376.739 621.497 376.754 624.279C376.77 627.059 378.112 629.666 380.37 631.289L506.459 722.126C509.114 724.041 512.622 724.302 515.533 722.8C518.444 721.298 520.266 718.291 520.248 715.016L520.184 703.679L626.307 703.803C649.764 703.831 671.583 691.791 684.066 671.932L786.36 509.216C765.85 531.925 736.586 545.316 705.448 545.538Z" fill="#F5F5F5"/>
<path d="M155.162 649.902C175.187 682.054 210.335 701.661 248.217 701.805L333.126 702.135C339.17 702.159 344.977 699.779 349.266 695.521C353.556 691.262 355.977 685.474 355.995 679.429L356.358 566.65C356.379 560.603 353.992 554.793 349.726 550.507C345.46 546.22 339.661 543.804 333.616 543.796L149.619 543.497C133.039 577.559 135.135 617.748 155.162 649.902Z" fill="#F5F5F5"/>
<path d="M208.26 382.399C211.218 383.811 214.712 383.447 217.311 381.452C219.91 379.46 221.17 376.174 220.571 372.956L192.146 220.176C191.637 217.443 189.851 215.118 187.345 213.918C184.837 212.718 181.907 212.79 179.458 214.111L42.695 287.91C39.8122 289.466 38.047 292.507 38.1295 295.779C38.2095 299.054 40.1219 302.004 43.0744 303.418L53.3048 308.312L6.87055 403.733C-3.39599 424.823 -2.08751 449.713 10.3314 469.611L112.081 632.665C100.604 604.304 101.326 572.132 114.716 544.019L114.729 544.083L196.205 376.631L208.26 382.399Z" fill="#F5F5F5"/>
</svg>
