<svg width="800" height="800" viewBox="0 0 800 800" fill="none" xmlns="http://www.w3.org/2000/svg">
<g clip-path="url(#clip0_2421_2259)">
<path d="M229.027 313.229C229.193 310.66 228.33 308.128 226.631 306.195L149.716 218.69C148.016 216.757 145.618 215.578 143.046 215.412C140.465 215.247 137.946 216.109 136.013 217.808C100.67 248.875 71.3341 285.513 48.8151 326.704C47.5811 328.964 47.2922 331.621 48.0164 334.09C48.7406 336.561 50.4164 338.643 52.6766 339.877L154.905 395.757C156.384 396.566 157.98 396.949 159.555 396.949C162.989 396.949 166.318 395.122 168.082 391.896C182.965 364.67 202.368 340.446 225.747 319.896C227.684 318.199 228.863 315.8 229.027 313.229Z" fill="#F5F5F5"/>
<path d="M263.349 280.822C265.093 284.11 268.456 285.983 271.935 285.983C273.47 285.983 275.026 285.618 276.475 284.85C303.876 270.318 333.353 260.835 364.089 256.665C369.402 255.945 373.126 251.053 372.406 245.74L356.747 130.294C356.026 124.982 351.121 121.263 345.821 121.978C299.144 128.308 254.385 142.706 212.786 164.77C208.05 167.282 206.247 173.157 208.757 177.895L263.349 280.822Z" fill="#F5F5F5"/>
<path d="M138.281 437.052L25.8405 406.545C23.3556 405.873 20.7046 406.211 18.4706 407.492C16.2366 408.773 14.6039 410.888 13.9281 413.373C4.68758 447.444 0 482.756 0 518.33C0 524.418 0.145098 530.525 0.447059 537.002C0.688889 542.206 4.98039 546.261 10.1386 546.261C10.2902 546.261 10.4444 546.258 10.5961 546.251L126.976 540.874C129.548 540.756 131.97 539.619 133.702 537.717C135.437 535.815 136.345 533.299 136.225 530.728C136.022 526.36 135.924 522.304 135.924 518.33C135.924 494.775 139.016 471.437 145.112 448.963C146.512 443.789 143.455 438.457 138.281 437.052Z" fill="#F5F5F5"/>
<path d="M573.505 157.837C531.137 137.412 485.871 124.754 438.962 120.208C436.384 119.949 433.84 120.741 431.852 122.376C429.864 124.013 428.609 126.371 428.361 128.936L417.128 244.899C416.61 250.235 420.519 254.982 425.856 255.498C456.774 258.493 486.592 266.83 514.484 280.275C515.81 280.915 517.252 281.239 518.699 281.239C519.779 281.239 520.861 281.058 521.902 280.695C524.332 279.847 526.327 278.065 527.444 275.746L578.033 170.796C580.363 165.967 578.336 160.163 573.505 157.837Z" fill="#F5F5F5"/>
<path d="M744.63 320.702C745.257 318.204 744.87 315.562 743.547 313.35C719.453 273.043 688.733 237.556 652.243 207.879C650.244 206.255 647.694 205.494 645.123 205.752C642.562 206.017 640.21 207.286 638.587 209.284L565.074 299.668C563.451 301.667 562.685 304.228 562.95 306.788C563.213 309.349 564.483 311.701 566.482 313.327C590.626 332.96 610.946 356.432 626.881 383.09C628.7 386.131 631.92 387.82 635.225 387.82C636.92 387.82 638.636 387.375 640.196 386.442L740.197 326.667C742.405 325.345 744 323.2 744.63 320.702Z" fill="#F5F5F5"/>
<path d="M781.757 398.613C780.152 393.495 774.702 390.644 769.59 392.251L658.416 427.085C653.298 428.687 650.451 434.134 652.054 439.249C660.033 464.721 664.079 491.327 664.079 518.327C664.079 522.302 663.979 526.358 663.778 530.724C663.658 533.295 664.565 535.812 666.301 537.714C668.036 539.617 670.455 540.753 673.026 540.87L789.407 546.247C789.561 546.253 789.713 546.257 789.864 546.257C795.02 546.257 799.313 542.201 799.556 536.998C799.855 530.521 800.003 524.414 800.003 518.327C800 477.524 793.864 437.247 781.757 398.613Z" fill="#F5F5F5"/>
<path d="M399.657 497.719C397.982 497.719 396.317 497.774 394.658 497.863L236.946 404.81C233.085 402.529 228.185 403.101 224.951 406.203C221.714 409.302 220.938 414.175 223.047 418.125L309.08 579.374C308.764 582.48 308.595 585.616 308.595 588.779C308.595 613.103 318.067 635.97 335.266 653.169C352.466 670.369 375.334 679.84 399.658 679.84C423.982 679.84 446.849 670.366 464.048 653.169C481.248 635.97 490.718 613.103 490.718 588.779C490.718 564.455 481.246 541.588 464.048 524.389C446.849 507.191 423.98 497.719 399.657 497.719Z" fill="#F5F5F5"/>
</g>
<defs>
<clipPath id="clip0_2421_2259">
<rect width="800" height="800" fill="white"/>
</clipPath>
</defs>
</svg>
